<?xml version="1.0" standalone="no"?>
<!DOCTYPE svg PUBLIC "-//W3C//DTD SVG 1.1//EN"
  "http://www.w3.org/Graphics/SVG/1.1/DTD/svg11.dtd">
<svg version="1.1" xmlns="http://www.w3.org/2000/svg" xmlns:xlink="http://www.w3.org/1999/xlink" width="1920" height="1080" viewBox="-1097.888888888889 193 2353.777777777778 1324" id="ccdiagram"><filter id="grayscale"><feColorMatrix type="saturate" values="0"></feColorMatrix></filter><filter id="highlight"><feColorMatrix type="matrix" color-interpolation-filters="sRGB" values="0.20338 0 0 0 0
                0 0.58474 0 0 0
                0 0 0.97033 0 0
                0 0 0 1 0"></feColorMatrix></filter><defs><style type="text/css">@import url('https://fonts.googleapis.com/css2?family=Noto+Sans:ital,wght@0,100..900;1,100..900&amp;family=Roboto+Mono:ital,wght@0,100..700;1,100..700&amp;display=swap');</style></defs><g><rect x="-1097.888888888889" y="193" width="2353.777777777778" height="1324" fill="none" id="interactionLayer"></rect><g pointer-events="auto"></g><g pointer-events="auto"></g><g pointer-events="auto"></g><g pointer-events="auto"></g><g pointer-events="auto"></g><g pointer-events="auto"></g><g pointer-events="auto"><g><g class="cloud-maps_raptor_node" id="e43d66c9-3434-414a-b865-33b1c3b44680"><g><g><polygon points="-967 225, 1125 225, 1125 1485, -967 1485" stroke="#607d8b" stroke-width="8" fill="none"></polygon></g><svg x="-967" y="225" overflow="visible"><clipPath id="clip-e43d66c9-3434-414a-b865-33b1c3b44680"><polygon points="45 -45, 2047 -45, 2047 45, 45 45"></polygon></clipPath><rect transform="" x="36.18" y="-49.045" rx="12" ry="12" width="276.4079016113281" height="72.09" fill="#13181b" opacity="0.8"></rect><g clip-path="url(#clip-e43d66c9-3434-414a-b865-33b1c3b44680)" font-family="Noto Sans" font-weight="bold" font-size="40pt" fill="#607d8b"><text transform="" x="45.225" y="4"><tspan>eu-west-1</tspan></text></g></svg></g></g></g></g><g pointer-events="auto"></g><g pointer-events="auto"><g><g class="cloud-maps_raptor_node" id="9a766b1e-d08a-44a7-ad8c-95a47448bf96"><g><g><polygon points="-787 405, 945 405, 945 1305, -787 1305" stroke="#8bc34a" stroke-width="8" fill="none"></polygon></g><svg x="-787" y="405" overflow="visible"><clipPath id="clip-9a766b1e-d08a-44a7-ad8c-95a47448bf96"><polygon points="45 -45, 1687 -45, 1687 45, 45 45"></polygon></clipPath><rect transform="" x="36.18" y="-49.045" rx="12" ry="12" width="121.11764892578125" height="72.09" fill="#1b260e" opacity="0.8"></rect><g clip-path="url(#clip-9a766b1e-d08a-44a7-ad8c-95a47448bf96)" font-family="Noto Sans" font-weight="bold" font-size="40pt" fill="#8bc34a"><text transform="" x="45.225" y="4"><tspan>VPC</tspan></text></g></svg></g></g></g></g><g pointer-events="auto"></g><g pointer-events="auto"></g><g pointer-events="auto"></g><g pointer-events="none"></g><g pointer-events="auto"><g id="ac0d40a2-a3d4-45b7-aa99-dcdc2e199a81-ca8b5215-a0db-4921-83e3-6f4c146ea05c"><g cursor="pointer"><line x1="-183" y1="675" x2="-13" y2="675" stroke="red" stroke-width="8" opacity="0"></line><line x1="-183" y1="675" x2="-13" y2="675" stroke="#ffffff" stroke-width="2" stroke-linecap="round"></line><polygon points="0 675, -24 664, -18 675, -24 686, 0 675" stroke-linejoin="round" fill="#ffffff" stroke="#ffffff" stroke-width="1"></polygon></g></g><g id="1a49b861-cc59-48a1-bc6b-e765bd00f8ae-0911411f-74e1-43d7-8ba5-b8342755706e"><g cursor="pointer"><line x1="45" y1="990" x2="45" y2="911" stroke="red" stroke-width="8" opacity="0"></line><line x1="45" y1="990" x2="45" y2="911" stroke="#ffffff" stroke-width="2" stroke-linecap="round"></line><polygon points="45 897, 34 922, 45 915, 56 922, 45 897" stroke-linejoin="round" fill="#ffffff" stroke="#ffffff" stroke-width="1"></polygon></g></g><g id="1a49b861-cc59-48a1-bc6b-e765bd00f8ae-cd4f61f7-45a8-46d5-90ac-0493dbd86176"><g cursor="pointer"><line x1="103" y1="1032" x2="617" y2="903" stroke="red" stroke-width="8" opacity="0"></line><line x1="103" y1="1032" x2="617" y2="903" stroke="#ffffff" stroke-width="2" stroke-linecap="round"></line><polygon points="90 1035, 117 1040, 107 1031, 111 1018, 90 1035" stroke-linejoin="round" fill="#ffffff" stroke="#ffffff" stroke-width="1"></polygon><polygon points="630 900, 603 895, 613 904, 609 917, 630 900" stroke-linejoin="round" fill="#ffffff" stroke="#ffffff" stroke-width="1"></polygon></g></g><g id="ca8b5215-a0db-4921-83e3-6f4c146ea05c-0911411f-74e1-43d7-8ba5-b8342755706e"><g cursor="pointer"><line x1="45" y1="720" x2="45" y2="799" stroke="red" stroke-width="8" opacity="0"></line><line x1="45" y1="720" x2="45" y2="799" stroke="#ffffff" stroke-width="2" stroke-linecap="round"></line><polygon points="45 813, 56 788, 45 795, 34 788, 45 813" stroke-linejoin="round" fill="#ffffff" stroke="#ffffff" stroke-width="1"></polygon></g></g><g id="0cf24927-4c5a-421e-be93-7c6c010206f9-25623601-7d62-45bc-b14f-724a8f3ce5d3"><g cursor="pointer"><line x1="-461" y1="855" x2="-267" y2="1035" stroke="red" stroke-width="8" opacity="0"></line><line x1="-461" y1="855" x2="-267" y2="1035" stroke="#ffffff" stroke-width="2" stroke-linecap="round"></line></g></g><g id="dcf51453-918a-45f4-a007-4adb9e0c396e-ac0d40a2-a3d4-45b7-aa99-dcdc2e199a81"><g cursor="pointer"><line x1="-270" y1="675" x2="-267" y2="675" stroke="red" stroke-width="8" opacity="0"></line><line x1="-270" y1="675" x2="-267" y2="675" stroke="#ffffff" stroke-width="2" stroke-linecap="round"></line></g></g><g id="0cf24927-4c5a-421e-be93-7c6c010206f9-dcf51453-918a-45f4-a007-4adb9e0c396e"><g cursor="pointer"><line x1="-461" y1="855" x2="-270" y2="675" stroke="red" stroke-width="8" opacity="0"></line><line x1="-461" y1="855" x2="-270" y2="675" stroke="#ffffff" stroke-width="2" stroke-linecap="round"></line></g></g><g id="ca8b5215-a0db-4921-83e3-6f4c146ea05c-aeafb2d4-acdc-47b1-aa5b-8adfea931205"><g cursor="pointer"><line x1="103" y1="678" x2="617" y2="807" stroke="red" stroke-width="8" opacity="0"></line><line x1="103" y1="678" x2="617" y2="807" stroke="#ffffff" stroke-width="2" stroke-linecap="round"></line><polygon points="90 675, 111 692, 107 679, 117 670, 90 675" stroke-linejoin="round" fill="#ffffff" stroke="#ffffff" stroke-width="1"></polygon><polygon points="630 810, 609 793, 613 806, 603 815, 630 810" stroke-linejoin="round" fill="#ffffff" stroke="#ffffff" stroke-width="1"></polygon></g></g><g id="25623601-7d62-45bc-b14f-724a8f3ce5d3-1a49b861-cc59-48a1-bc6b-e765bd00f8ae"><g cursor="pointer"><line x1="-183" y1="1035" x2="-13" y2="1035" stroke="red" stroke-width="8" opacity="0"></line><line x1="-183" y1="1035" x2="-13" y2="1035" stroke="#ffffff" stroke-width="2" stroke-linecap="round"></line><polygon points="0 1035, -24 1024, -18 1035, -24 1046, 0 1035" stroke-linejoin="round" fill="#ffffff" stroke="#ffffff" stroke-width="1"></polygon></g></g></g><g pointer-events="auto"></g><g pointer-events="auto"></g><g pointer-events="auto"><g><g class="cloud-maps_raptor_node" id="0cf24927-4c5a-421e-be93-7c6c010206f9"><svg x="-517" y="855" overflow="visible"><g transform="scale(1.766493702224834) "><circle cx="0" cy="0" fill="transparent" r="39"></circle><svg width="64" height="64" x="-32" y="-32" style="fill: rgb(0, 0, 0);"><svg xmlns="http://www.w3.org/2000/svg" width="64" height="64" viewBox="0 0 64 64"><defs><linearGradient id="API-Gateway_svg__a" x1="0%" x2="100%" y1="100%" y2="0%"><stop offset="0%" stop-color="#B0084D"></stop><stop offset="100%" stop-color="#FF4F8B"></stop></linearGradient></defs><g fill="none" fill-rule="evenodd"><g fill="url(#API-Gateway_svg__a)"><path d="M0 0h64v64H0z"></path></g><g fill="#FFF"><path d="M28 44h3v-2h-3v2Zm5 0h3v-2h-3v2Zm-5-22h3v-2h-3v2Zm5 0h3v-2h-3v2Zm-11-9.26-10 5.834v27.808l10 5V12.741ZM24 20h2v2h-2v20h2v2h-2v9a1.001 1.001 0 0 1-1.447.895l-12-6A1.001 1.001 0 0 1 10 47V18a1 1 0 0 1 .496-.864l12-7A1.002 1.002 0 0 1 24 11v9Zm28-1.426L42 12.74v38.641l10-5V18.574ZM54 18v29c0 .379-.214.725-.553.895l-12 6a1.005 1.005 0 0 1-.972-.044A1.001 1.001 0 0 1 40 53v-9h-2v-2h2V22h-2v-2h2v-9a.998.998 0 0 1 1.504-.864l12 7A1 1 0 0 1 54 18Zm-19.061 9.342-1.878-.684-4 11 1.878.684 4-11Zm4.768 5.365a.999.999 0 0 0 0-1.414l-3-3-1.414 1.414L37.586 32l-2.293 2.293 1.414 1.414 3-3Zm-12.414 3-3-3a.999.999 0 0 1 0-1.414l3-3 1.414 1.414L26.414 32l2.293 2.293-1.414 1.414Z"></path></g></g></svg></svg></g></svg></g></g><g><g class="cloud-maps_raptor_node" id="ca8b5215-a0db-4921-83e3-6f4c146ea05c"><svg x="45" y="675" overflow="visible"><g transform="scale(1.4131949617798671) "><circle cx="0" cy="0" fill="transparent" r="39"></circle><svg width="64" height="64" x="-32" y="-32" style="fill: rgb(0, 0, 0);"><svg xmlns="http://www.w3.org/2000/svg" width="64" height="64" viewBox="0 0 64 64"><defs><linearGradient id="Lambda_svg__a" x1="0%" x2="100%" y1="100%" y2="0%"><stop offset="0%" stop-color="#C8511B"></stop><stop offset="100%" stop-color="#F90"></stop></linearGradient></defs><g fill="none" fill-rule="evenodd"><g fill="url(#Lambda_svg__a)"><path d="M0 0h64v64H0z"></path></g><path fill="#FFF" d="M22.68 52h-9.106l10.264-21.59 4.562 9.451L22.68 52Zm2.047-24.333a.994.994 0 0 0-.896-.564h-.003a.994.994 0 0 0-.896.569L11.097 52.569c-.147.31-.126.674.057.965.181.29.5.466.842.466H23.31a.996.996 0 0 0 .9-.572l6.194-13.144a1.003 1.003 0 0 0-.005-.864l-5.672-11.753ZM51.008 52h-9.022L26.955 19.578a.997.997 0 0 0-.903-.578h-5.924l.007-7h11.68l14.96 32.42c.163.354.516.58.904.58h3.33v7Zm.996-9h-3.69l-14.96-32.42a.995.995 0 0 0-.903-.58H19.14a.999.999 0 0 0-.996.999l-.008 9A.993.993 0 0 0 19.131 21h6.286l15.03 32.422a.995.995 0 0 0 .903.578h10.654c.55 0 .996-.448.996-1v-9c0-.552-.445-1-.996-1Z"></path></g></svg></svg></g></svg></g></g><g><g class="cloud-maps_raptor_node" id="ac0d40a2-a3d4-45b7-aa99-dcdc2e199a81"><svg x="-225" y="675" overflow="visible"><g transform="scale(1.766493702224834) "><circle cx="0" cy="0" fill="transparent" r="31"></circle><svg width="48" height="48" x="-24" y="-24" style="fill: rgb(0, 0, 0);"><svg xmlns="http://www.w3.org/2000/svg" width="48" height="48" viewBox="0 0 48 48"><g fill="none" fill-rule="evenodd"><path fill="#B0084D" d="M25.909 24.955h1.908v-1.909h-1.908v1.909Zm-2.864 0h1.909v-1.909h-1.909v1.909Zm-2.863 0h1.909v-1.909h-1.909v1.909Zm17.136 6.048-6.59 5.799v-25.47l6.59 5.798v13.873ZM30.944 8.926c-.204-.087-1.088-.347-1.702-.006l-.514.285v29.724l.514.285c.229.127.495.171.751.171.428 0 .823-.122.951-.177l.148-.062 7.473-6.577c.463-.27.753-.756.753-1.285V16.849c0-.528-.289-1.014-.752-1.285l-7.474-6.576-.148-.062ZM17.273 36.803l-6.591-5.799V17.129l6.591-5.798v25.472Zm-.218-27.877-.148.062-7.475 6.577c-.461.271-.75.756-.75 1.284v14.435c0 .528.289 1.015.751 1.284l7.474 6.578.148.062c.127.055.523.177.951.177.255 0 .521-.044.75-.17l.517-.285V9.204l-.517-.285c-.612-.337-1.498-.08-1.701.007ZM44 32.284 32.284 44H15.715L4 32.284V15.716L15.715 4h16.569L44 15.716v16.568ZM33.112 2H14.887L2 14.888v18.224L14.887 46h18.225L46 33.112V14.888L33.112 2Z"></path></g></svg></svg></g></svg></g></g><g><g class="cloud-maps_raptor_node" id="25623601-7d62-45bc-b14f-724a8f3ce5d3"><svg x="-225" y="1035" overflow="visible"><g transform="scale(1.766493702224834) "><circle cx="0" cy="0" fill="transparent" r="31"></circle><svg width="48" height="48" x="-24" y="-24" style="fill: rgb(0, 0, 0);"><svg xmlns="http://www.w3.org/2000/svg" width="48" height="48" viewBox="0 0 48 48"><g fill="none" fill-rule="evenodd"><path fill="#B0084D" d="M25.909 24.955h1.908v-1.909h-1.908v1.909Zm-2.864 0h1.909v-1.909h-1.909v1.909Zm-2.863 0h1.909v-1.909h-1.909v1.909Zm17.136 6.048-6.59 5.799v-25.47l6.59 5.798v13.873ZM30.944 8.926c-.204-.087-1.088-.347-1.702-.006l-.514.285v29.724l.514.285c.229.127.495.171.751.171.428 0 .823-.122.951-.177l.148-.062 7.473-6.577c.463-.27.753-.756.753-1.285V16.849c0-.528-.289-1.014-.752-1.285l-7.474-6.576-.148-.062ZM17.273 36.803l-6.591-5.799V17.129l6.591-5.798v25.472Zm-.218-27.877-.148.062-7.475 6.577c-.461.271-.75.756-.75 1.284v14.435c0 .528.289 1.015.751 1.284l7.474 6.578.148.062c.127.055.523.177.951.177.255 0 .521-.044.75-.17l.517-.285V9.204l-.517-.285c-.612-.337-1.498-.08-1.701.007ZM44 32.284 32.284 44H15.715L4 32.284V15.716L15.715 4h16.569L44 15.716v16.568ZM33.112 2H14.887L2 14.888v18.224L14.887 46h18.225L46 33.112V14.888L33.112 2Z"></path></g></svg></svg></g></svg></g></g><g><g class="cloud-maps_raptor_node" id="1a49b861-cc59-48a1-bc6b-e765bd00f8ae"><svg x="45" y="1035" overflow="visible"><g transform="scale(1.4131949617798671) "><circle cx="0" cy="0" fill="transparent" r="39"></circle><svg width="64" height="64" x="-32" y="-32" style="fill: rgb(0, 0, 0);"><svg xmlns="http://www.w3.org/2000/svg" width="64" height="64" viewBox="0 0 64 64"><defs><linearGradient id="Lambda_svg__a" x1="0%" x2="100%" y1="100%" y2="0%"><stop offset="0%" stop-color="#C8511B"></stop><stop offset="100%" stop-color="#F90"></stop></linearGradient></defs><g fill="none" fill-rule="evenodd"><g fill="url(#Lambda_svg__a)"><path d="M0 0h64v64H0z"></path></g><path fill="#FFF" d="M22.68 52h-9.106l10.264-21.59 4.562 9.451L22.68 52Zm2.047-24.333a.994.994 0 0 0-.896-.564h-.003a.994.994 0 0 0-.896.569L11.097 52.569c-.147.31-.126.674.057.965.181.29.5.466.842.466H23.31a.996.996 0 0 0 .9-.572l6.194-13.144a1.003 1.003 0 0 0-.005-.864l-5.672-11.753ZM51.008 52h-9.022L26.955 19.578a.997.997 0 0 0-.903-.578h-5.924l.007-7h11.68l14.96 32.42c.163.354.516.58.904.58h3.33v7Zm.996-9h-3.69l-14.96-32.42a.995.995 0 0 0-.903-.58H19.14a.999.999 0 0 0-.996.999l-.008 9A.993.993 0 0 0 19.131 21h6.286l15.03 32.422a.995.995 0 0 0 .903.578h10.654c.55 0 .996-.448.996-1v-9c0-.552-.445-1-.996-1Z"></path></g></svg></svg></g></svg></g></g><g><g class="cloud-maps_raptor_node" id="5f71f47b-b775-4e3c-939c-cbd771eb57c0"><svg x="675" y="855" overflow="visible"><g transform="scale(2.2081171277810427) "><circle cx="0" cy="0" fill="transparent" r="31"></circle><svg width="48" height="48" x="-24" y="-24" style="fill: rgb(0, 0, 0);"><svg xmlns="http://www.w3.org/2000/svg" width="48" height="48" viewBox="0 0 48 48"><g fill="none" fill-rule="evenodd"><path fill="#2E27AD" d="M13.355 11.862h32.573V2H13.355v9.862Zm2-2h28.572V4.001H15.355v5.861ZM2 11.862h9.861V2H2v9.862Zm2-2h5.862V4.001H4v5.861Zm9.355 13.355h32.573v-9.861H13.355v9.861Zm2-2h28.572v-5.861H15.355v5.861ZM2 23.217h9.861v-9.861H2v9.861Zm2-2h5.862v-5.861H4v5.861Zm9.355 13.355h32.573v-9.861H13.355v9.861Zm2-2h28.572V26.71H15.355v5.862ZM2 34.572h9.861v-9.861H2v9.861Zm2-2h5.862V26.71H4v5.862Zm9.355 13.355h32.573v-9.861H13.355v9.861Zm2-1.999h28.572v-5.862H15.355v5.862ZM2 45.927h9.861v-9.861H2v9.861Zm2-1.999h5.862v-5.862H4v5.862Z"></path></g></svg></svg></g></svg></g></g><g><g class="cloud-maps_raptor_node" id="0911411f-74e1-43d7-8ba5-b8342755706e"><svg x="45" y="855" overflow="visible"><g transform="scale(1.766493702224834) "><circle cx="0" cy="0" fill="transparent" r="31"></circle><svg width="48" height="48" x="-24" y="-24" style="fill: rgb(0, 0, 0);"><svg xmlns="http://www.w3.org/2000/svg" width="48" height="48" viewBox="0 0 48 48"><g fill="none" fill-rule="evenodd"><path fill="#B0084D" d="M35.589 36.759c0 .375.306.682.68.682h.002a.678.678 0 0 0 .68-.682v-.002a.678.678 0 0 0-.68-.68h-.001a.673.673 0 0 0-.481.2.674.674 0 0 0-.2.482Zm-2-.001c0-.717.28-1.39.786-1.896a2.662 2.662 0 0 1 1.894-.785h.003c.716 0 1.39.28 1.897.787a2.66 2.66 0 0 1 .782 1.897 2.664 2.664 0 0 1-.786 1.895c-.26.26-.564.457-.895.59v2.797h-2v-2.8a2.682 2.682 0 0 1-1.681-2.485Zm9.527-3.983-13.687-.006-.004 11.069 13.685.007.006-11.07ZM32.902 30.77l6.713.002v-2.47c.006-2.021-1.487-3.667-3.328-3.673h-.011c-.882 0-1.715.368-2.348 1.036a3.77 3.77 0 0 0-1.014 2.594l-.012 2.51Zm12.214 1.004-.006 13.07a1 1 0 0 1-1 1l-15.685-.007a1 1 0 0 1-1-1l.004-13.07a.997.997 0 0 1 1-1l2.473.002.012-2.518a5.763 5.763 0 0 1 1.56-3.96c1.015-1.072 2.365-1.662 3.802-1.662h.017c2.944.01 5.332 2.556 5.322 5.676v2.468h2.5c.267 0 .52.106.708.294a.997.997 0 0 1 .293.707Zm-30.64-.75h6.974v-2h-6.974v2Zm0-3.487h6.974v-2h-6.974v2Zm0-3.487h6.974v-2h-6.974v2Zm-1.57 9.333H23.11V19.693H12.906v13.69ZM25.11 18.693v15.69a1 1 0 0 1-1 1H11.906a1 1 0 0 1-1-1v-15.69a1 1 0 0 1 1-1H24.11a1 1 0 0 1 1 1ZM5.94 8.975h24.077L26.47 4H9.486L5.94 8.975Zm-2.83 1.458a1 1 0 0 1 .076-1.038l4.97-6.975A1 1 0 0 1 8.97 2h18.015a1 1 0 0 1 .815.42l4.97 6.975a1 1 0 0 1-.814 1.58H4a1 1 0 0 1-.89-.542Zm1.94 29.054h19.888v2H4.05a1 1 0 0 1-1-1V13.462a1 1 0 0 1 1-1h27.905a1 1 0 0 1 1 1v8.717h-2v-7.717H5.05v25.025Z"></path></g></svg></svg></g></svg></g></g></g><g pointer-events="auto"><g><g class="cloud-maps_raptor_node" id="845f9098-c6c7-4866-ab0c-f6cd5694a8a5" transform="translate(0 0)"><svg x="-270" y="563" overflow="visible"><text stroke="#000000" font-family="Noto Sans" y="36.5" font-size="25pt" fill="#ffffff" font-weight="bold" transform="" paint-order="stroke" xml:space="preserve"><tspan x="8" dy="0">POST URL to shorten</tspan></text></svg></g></g><g><g class="cloud-maps_raptor_node" id="ff233c16-3569-405c-b550-c414ff180af7" transform="translate(0 0)"><svg x="-270" y="1103" overflow="visible"><text stroke="#000000" font-family="Noto Sans" y="36.5" font-size="25pt" fill="#ffffff" font-weight="bold" transform="" paint-order="stroke" xml:space="preserve"><tspan x="8" dy="0">GET by shortened URL</tspan></text></svg></g></g><g><g class="cloud-maps_raptor_node" id="c1907ed7-a6d1-4bc9-afec-d4d8eb884f0b" transform="translate(0 0)"><svg x="540" y="945" overflow="visible"><text stroke="#000000" font-family="Noto Sans" y="36.5" font-size="25pt" fill="#ffffff" font-weight="bold" transform="" paint-order="stroke" xml:space="preserve"><tspan x="8" dy="0">DynamoDB Table</tspan></text></svg></g></g><g><g class="cloud-maps_raptor_node" id="1a9b7828-b9e1-4738-b105-97fbbcf3f375" transform="translate(0 0)"><svg x="90" y="833" overflow="visible"><text stroke="#000000" stroke-width="2" font-family="Noto Sans" y="36.5" font-size="25pt" fill="#ffffff" font-weight="bold" transform="" paint-order="stroke" xml:space="preserve"><tspan x="8" dy="0">SSM Parameter Store</tspan></text></svg></g></g></g></g></svg>